<?xml version="1.0" ?><svg height="64" id="svg8" version="1.1" viewBox="0 0 16.933333 16.933333" width="64" xmlns="http://www.w3.org/2000/svg" xmlns:cc="http://creativecommons.org/ns#" xmlns:dc="http://purl.org/dc/elements/1.1/" xmlns:inkscape="http://www.inkscape.org/namespaces/inkscape" xmlns:rdf="http://www.w3.org/1999/02/22-rdf-syntax-ns#" xmlns:sodipodi="http://sodipodi.sourceforge.net/DTD/sodipodi-0.dtd" xmlns:svg="http://www.w3.org/2000/svg"><defs id="defs2"/><g id="layer2"><path d="m 1.3229105,11.90625 h 4.2333357 c 0.2931572,0 0.5291647,0.236007 0.5291647,0.529165 v 1.058337 c 0,0.293158 -0.2360075,0.529165 -0.5291647,0.529165 H 1.3229105 c -0.2931572,0 -0.52916468,-0.236007 -0.52916468,-0.529165 v -1.058337 c 0,-0.293158 0.23600748,-0.529165 0.52916468,-0.529165 z" id="rect8221" style="fill:#a8c5f7;fill-opacity:1;stroke:none;stroke-width:0.529167;stroke-linecap:round;stroke-linejoin:round;stroke-miterlimit:4;stroke-dasharray:none"/><path d="m 5.55625,11.90625 v 1.058333 c 0,0.293157 -0.236009,0.529167 -0.529166,0.529167 H 0.79374998 c 0,0.293157 0.23601002,0.529166 0.52916702,0.529166 H 5.55625 c 0.293158,0 0.529167,-0.236009 0.529167,-0.529166 v -1.058334 c 0,-0.293157 -0.236009,-0.529166 -0.529167,-0.529166 z" id="path8223" style="fill:#91b8fb;fill-opacity:1;stroke:none;stroke-width:0.529167;stroke-linecap:round;stroke-linejoin:round;stroke-miterlimit:4;stroke-dasharray:none"/><path d="m 1.3229146,14.022913 h 4.2333275 c 0.2931595,0 0.5291688,0.236009 0.5291688,0.529169 v 1.058329 c 0,0.29316 -0.2360093,0.529169 -0.5291688,0.529169 H 1.3229146 c -0.2931595,0 -0.52916878,-0.236009 -0.52916878,-0.529169 v -1.058329 c 0,-0.29316 0.23600928,-0.529169 0.52916878,-0.529169 z" id="rect8225" style="fill:#e2e7fa;fill-opacity:1;stroke:none;stroke-width:0.529167;stroke-linecap:round;stroke-linejoin:round;stroke-miterlimit:4;stroke-dasharray:none"/><path d="m 1.3223968,11.906249 c -0.2931573,0 -0.52916666,0.23601 -0.52916666,0.529167 v 1.058333 c 0,0.293158 0.23600936,0.529167 0.52916666,0.529167 h 0.5291667 c -0.2931573,0 -0.5291667,-0.236009 -0.5291667,-0.529167 v -1.058333 c 0,-0.293157 0.2360094,-0.529167 0.5291667,-0.529167 z" id="path849" style="fill:#f8f8f8;fill-opacity:1;stroke:none;stroke-width:0.529167;stroke-linecap:round;stroke-linejoin:round;stroke-miterlimit:4;stroke-dasharray:none"/><path d="m 5.55625,14.022916 v 1.058334 c 0,0.293157 -0.236009,0.529166 -0.529166,0.529166 H 0.79374998 c 0,0.293158 0.23601002,0.529167 0.52916702,0.529167 H 5.55625 c 0.293157,0 0.529167,-0.236009 0.529167,-0.529167 v -1.058333 c 0,-0.293157 -0.23601,-0.529167 -0.529167,-0.529167 z" id="path8227" style="fill:#c4d2f0;fill-opacity:1;stroke:none;stroke-width:0.529167;stroke-linecap:round;stroke-linejoin:round;stroke-miterlimit:4;stroke-dasharray:none"/><path d="m 11.377077,11.90625 h 4.233335 c 0.293157,0 0.529165,0.236007 0.529165,0.529165 v 1.058337 c 0,0.293158 -0.236008,0.529165 -0.529165,0.529165 h -4.233335 c -0.293158,0 -0.529165,-0.236007 -0.529165,-0.529165 v -1.058337 c 0,-0.293158 0.236007,-0.529165 0.529165,-0.529165 z" id="rect8213" style="fill:#a8c5f7;fill-opacity:1;stroke:none;stroke-width:0.529167;stroke-linecap:round;stroke-linejoin:round;stroke-miterlimit:4;stroke-dasharray:none"/><path d="m 15.610416,11.90625 v 1.058333 c 0,0.293157 -0.236009,0.529167 -0.529166,0.529167 h -4.233334 c 0,0.293157 0.23601,0.529166 0.529167,0.529166 h 4.233333 c 0.293158,0 0.529167,-0.236009 0.529167,-0.529166 v -1.058334 c 0,-0.293157 -0.236009,-0.529166 -0.529167,-0.529166 z" id="path8215" style="fill:#91b8fb;fill-opacity:1;stroke:none;stroke-width:0.529167;stroke-linecap:round;stroke-linejoin:round;stroke-miterlimit:4;stroke-dasharray:none"/><path d="m 11.377081,14.022913 h 4.233327 c 0.29316,0 0.529169,0.236009 0.529169,0.529169 v 1.058329 c 0,0.29316 -0.236009,0.529169 -0.529169,0.529169 h -4.233327 c -0.29316,0 -0.529169,-0.236009 -0.529169,-0.529169 v -1.058329 c 0,-0.29316 0.236009,-0.529169 0.529169,-0.529169 z" id="rect8217" style="fill:#e2e7fa;fill-opacity:1;stroke:none;stroke-width:0.529167;stroke-linecap:round;stroke-linejoin:round;stroke-miterlimit:4;stroke-dasharray:none"/><path d="m 11.377083,11.906249 c -0.293158,0 -0.529167,0.23601 -0.529167,0.529167 v 1.058333 c 0,0.293158 0.236009,0.529167 0.529167,0.529167 h 0.529166 c -0.293157,0 -0.529166,-0.236009 -0.529166,-0.529167 v -1.058333 c 0,-0.293157 0.236009,-0.529167 0.529166,-0.529167 z" id="path853" style="fill:#f8f8f8;fill-opacity:1;stroke:none;stroke-width:0.529167;stroke-linecap:round;stroke-linejoin:round;stroke-miterlimit:4;stroke-dasharray:none"/><path d="m 15.610416,14.022916 v 1.058334 c 0,0.293157 -0.236009,0.529166 -0.529166,0.529166 h -4.233334 c 0,0.293158 0.23601,0.529167 0.529167,0.529167 h 4.233333 c 0.293157,0 0.529167,-0.236009 0.529167,-0.529167 v -1.058333 c 0,-0.293157 -0.23601,-0.529167 -0.529167,-0.529167 z" id="path8219" style="fill:#c4d2f0;fill-opacity:1;stroke:none;stroke-width:0.529167;stroke-linecap:round;stroke-linejoin:round;stroke-miterlimit:4;stroke-dasharray:none"/><path d="m 6.3499936,0.7937507 h 4.2333354 c 0.293158,0 0.529165,0.2360074 0.529165,0.5291647 v 1.0583377 c 0,0.2931572 -0.236007,0.5291646 -0.529165,0.5291646 H 6.3499936 c -0.2931572,0 -0.5291647,-0.2360074 -0.5291647,-0.5291646 V 1.3229154 c 0,-0.2931573 0.2360075,-0.5291647 0.5291647,-0.5291647 z" id="rect8199" style="fill:#a8c5f7;fill-opacity:1;stroke:none;stroke-width:0.529167;stroke-linecap:round;stroke-linejoin:round;stroke-miterlimit:4;stroke-dasharray:none"/><path d="M 10.583333,0.79374999 V 1.8520833 c 0,0.2931572 -0.236009,0.5291667 -0.529166,0.5291667 H 5.8208333 c 0,0.2931572 0.2360093,0.5291666 0.5291666,0.5291666 h 4.2333331 c 0.293157,0 0.529167,-0.2360094 0.529167,-0.5291666 V 1.3229166 c 0,-0.2931572 -0.23601,-0.52916661 -0.529167,-0.52916661 z" id="rect8207" style="fill:#91b8fb;fill-opacity:1;stroke:none;stroke-width:0.529167;stroke-linecap:round;stroke-linejoin:round;stroke-miterlimit:4;stroke-dasharray:none"/><path d="m 6.3499977,2.9104133 h 4.2333273 c 0.29316,0 0.529169,0.2360092 0.529169,0.5291687 v 1.0583295 c 0,0.2931595 -0.236009,0.5291688 -0.529169,0.5291688 H 6.3499977 c -0.2931595,0 -0.5291688,-0.2360093 -0.5291688,-0.5291688 V 3.439582 c 0,-0.2931595 0.2360093,-0.5291687 0.5291688,-0.5291687 z" id="rect8201" style="fill:#e2e7fa;fill-opacity:1;stroke:none;stroke-width:0.529167;stroke-linecap:round;stroke-linejoin:round;stroke-miterlimit:4;stroke-dasharray:none"/><path d="m 10.583333,2.9104166 v 1.0583333 c 0,0.2931572 -0.236009,0.5291667 -0.529166,0.5291667 H 5.8208333 c 0,0.2931572 0.2360093,0.5291666 0.5291666,0.5291666 h 4.2333331 c 0.293157,0 0.529167,-0.2360094 0.529167,-0.5291666 V 3.4395833 c 0,-0.2931573 -0.23601,-0.5291667 -0.529167,-0.5291667 z" id="path8211" style="fill:#c4d2f0;fill-opacity:1;stroke:none;stroke-width:0.529167;stroke-linecap:round;stroke-linejoin:round;stroke-miterlimit:4;stroke-dasharray:none"/><path d="M 24 3 C 22.892004 3 22 3.8920039 22 5 L 22 9 C 22 10.107996 22.892004 11 24 11 L 26 11 C 24.892004 11 24 10.107996 24 9 L 24 5 C 24 3.8920039 24.892004 3 26 3 L 24 3 z " id="path844" style="fill:#f8f8f8;fill-opacity:1;stroke:none;stroke-width:2.00000119;stroke-linecap:round;stroke-linejoin:round;stroke-miterlimit:4;stroke-dasharray:none" transform="scale(0.26458333)"/><path d="m 6.3499999,2.9104166 c -0.2931573,0 -0.5291666,0.2360093 -0.5291666,0.5291666 v 1.0583333 c 0,0.2931573 0.2360093,0.5291667 0.5291666,0.5291667 h 0.5291667 c -0.2931573,0 -0.5291667,-0.2360094 -0.5291667,-0.5291667 V 3.4395832 c 0,-0.2931573 0.2360094,-0.5291666 0.5291667,-0.5291666 z" id="path847" style="fill:#f8f8f8;fill-opacity:1;stroke:none;stroke-width:0.529167;stroke-linecap:round;stroke-linejoin:round;stroke-miterlimit:4;stroke-dasharray:none"/><path d="m 1.3223968,14.022916 c -0.2931573,0 -0.52916662,0.236009 -0.52916662,0.529167 v 1.058333 c 0,0.293157 0.23600932,0.529167 0.52916662,0.529167 h 0.5291667 c -0.2931573,0 -0.5291667,-0.23601 -0.5291667,-0.529167 v -1.058333 c 0,-0.293158 0.2360094,-0.529167 0.5291667,-0.529167 z" id="path851" style="fill:#f8f8f8;fill-opacity:1;stroke:none;stroke-width:0.529167;stroke-linecap:round;stroke-linejoin:round;stroke-miterlimit:4;stroke-dasharray:none"/><path d="m 11.377083,14.022916 c -0.293158,0 -0.529167,0.236009 -0.529167,0.529167 v 1.058333 c 0,0.293157 0.236009,0.529167 0.529167,0.529167 h 0.529166 c -0.293157,0 -0.529166,-0.23601 -0.529166,-0.529167 v -1.058333 c 0,-0.293158 0.236009,-0.529167 0.529166,-0.529167 z" id="path855" style="fill:#f8f8f8;fill-opacity:1;stroke:none;stroke-width:0.529167;stroke-linecap:round;stroke-linejoin:round;stroke-miterlimit:4;stroke-dasharray:none"/><path d="m 6.3494866,0.52919698 c -0.43516,0 -0.79272,0.35808 -0.79272,0.79324002 v 1.0583299 c 0,0.20332 0.0801,0.38829 0.20774,0.52968 -0.1277401,0.14097 -0.20774,0.32574 -0.20774,0.5291699 v 1.0583301 c 0,0.43517 0.35755,0.7932398 0.79272,0.7932398 h 4.2343594 c 0.43516,0 0.79324,-0.3580699 0.79324,-0.7932398 V 3.4396168 c 0,-0.2034299 -0.0805,-0.3881999 -0.20826,-0.5291699 0.12762,-0.14139 0.20826,-0.32636 0.20826,-0.52968 V 1.322437 c 0,-0.43516002 -0.35808,-0.79324002 -0.79324,-0.79324002 z m 0,0.52969002 H 7.6739465 V 2.6463869 H 6.3494866 c -0.1511599,0 -0.2635499,-0.11447 -0.2635499,-0.26562 V 1.322437 c 0,-0.15116 0.11239,-0.26355 0.2635499,-0.26355 z m 1.8515599,0 h 2.3827995 c 0.15116,0 0.26355,0.11239 0.26355,0.26355 v 1.0583299 c 0,0.15115 -0.11239,0.26562 -0.26355,0.26562 H 8.2010465 Z m -1.32188,0.5286499 c -0.1461299,0 -0.2645799,0.11845 -0.2645799,0.26458 0,0.14613 0.11845,0.26458 0.2645799,0.26458 0.1461201,0 0.2645802,-0.11845 0.2645802,-0.26458 0,-0.14613 -0.1184601,-0.26458 -0.2645802,-0.26458 z m 2.1171799,5.106e-4 c -0.1463198,-8.493e-4 -0.2655599,0.11722 -0.2661298,0.26355 -5.821e-4,0.14714 0.1190001,0.26648 0.2661298,0.26562 h 1.0583396 c 0.14612,-5.706e-4 0.26412,-0.1194906 0.26355,-0.2656206 -5.6e-4,-0.14532 -0.11823,-0.26298 -0.26355,-0.26355 z M 4.6110868,2.7032369 C 2.6326169,3.9732467 1.3223969,6.1934166 1.3223969,8.7168265 c 0,0.77158 0.12254,1.5159995 0.3493399,2.2127795 0.0451,0.13953 0.19504,0.21578 0.33434,0.17002 0.13905,-0.0453 0.21497,-0.19483 0.1695,-0.33383 -0.2098599,-0.64476 -0.3240099,-1.3333895 -0.3240099,-2.0489695 0,-2.3402899 1.2147699,-4.3921098 3.0468399,-5.5681397 0.1229598,-0.0788 0.1588098,-0.24233 0.0801,-0.36535 -0.0476,-0.0751 -0.12969,-0.12133 -0.21859,-0.122995 -0.0528,-8.749e-4 -0.1046102,0.014095 -0.14883,0.042895 z m 7.3437192,0.080069 c -0.0787,0.12302 -0.0429,0.2865401 0.0801,0.36535 1.832039,1.1760398 3.04736,3.2278697 3.04736,5.5681395 0,0.71558 -0.114671,1.4042106 -0.32453,2.0489696 -0.0454,0.13914 0.0308,0.28874 0.170009,0.33383 0.13915,0.0454 0.288741,-0.0308 0.333831,-0.17002 0.2268,-0.69678 0.349849,-1.4412095 0.349849,-2.2127796 0,-2.5233898 -1.310749,-4.7435695 -3.289199,-6.0135894 -0.044,-0.0283 -0.0955,-0.0428 -0.156841,-0.04162 -0.09154,0.00728 -0.166089,0.05198 -0.210579,0.1217199 z M 6.3494866,3.1760368 H 7.6739465 V 4.7614669 H 6.3494866 c -0.1511599,0 -0.2635499,-0.11239 -0.2635499,-0.2635501 V 3.4395869 c 0,-0.1511602 0.11239,-0.2635501 0.2635499,-0.2635501 z m 1.8515599,0 h 2.3827995 c 0.15116,0 0.26355,0.1123899 0.26355,0.2635501 v 1.0583299 c 0,0.1511601 -0.11239,0.2635501 -0.26355,0.2635501 H 8.2010465 Z m -1.32188,0.52813 c -0.1461299,0 -0.2645799,0.11846 -0.2645799,0.2645801 0,0.1461298 0.11845,0.26459 0.2645799,0.26459 0.1461201,0 0.2645802,-0.1184602 0.2645802,-0.26459 0,-0.1461201 -0.1184601,-0.2645801 -0.2645802,-0.2645801 z m 2.1171799,0.00101 C 8.8500165,3.7043255 8.7307865,3.8223921 8.7302166,3.9687221 c 5.821e-4,0.1463299 0.11981,0.26441 0.2661298,0.2635501 h 1.0583396 c 0.14532,-5.556e-4 0.26298,-0.1182301 0.26355,-0.2635501 -5.55e-4,-0.1453201 -0.11823,-0.26298 -0.26355,-0.2635499 z m -0.8753998,2.668046 c -0.28217,0.0373 -0.5592001,0.1193101 -0.81803,0.24597 -0.1321999,0.0642 -0.18673,0.2238699 -0.1214401,0.3555402 0.0644,0.1308099 0.22245,0.1848799 0.3534601,0.1209198 0.2069901,-0.1012899 0.4288699,-0.1675699 0.65474,-0.1974 0.4517501,-0.0597 0.92129,0.024299 1.3379099,0.2656101 0.8332195,0.4826297 1.2393395,1.4657207 0.9901195,2.3988197 l -0.0662,0.24753 -0.31264,-0.54467 c -0.0522,-0.0903 -0.1525795,-0.141479 -0.2563195,-0.130739 -0.0371,0.003 -0.073,0.0148 -0.10542,0.0331 -0.12672,0.0728 -0.17045,0.234499 -0.0977,0.3612091 l 0.6330395,1.1017493 c 0.0735,0.12596 0.23504,0.16871 0.36122,0.0956 l 1.09761,-0.634589 c 0.12597,-0.0735 0.16873,-0.2350393 0.0956,-0.3612204 -0.0733,-0.1261589 -0.23491,-0.16916 -0.36122,-0.0961 l -0.54312,0.31471 0.0667,-0.2501099 c 0.31019,-1.161389 -0.19751,-2.3904897 -1.2360995,-2.9920697 -0.38947,-0.22558 -0.81805,-0.34257 -1.2458999,-0.3555455 -0.1426,-0.00402 -0.2852199,0.00298 -0.42631,0.021685 z M 6.2595666,7.293112 5.1619567,7.9276915 c -0.1272199,0.0735 -0.1701401,0.2366601 -0.0956,0.3632901 0.0735,0.12597 0.23504,0.16873 0.36122,0.0956 l 0.5436302,-0.31471 -0.0667,0.2506299 c -0.3101898,1.1613901 0.1975101,2.3884195 1.2361,2.9899995 0.5193001,0.30078 1.10739,0.40837 1.6717301,0.33383 0.2821799,-0.0373 0.5597295,-0.11932 0.8185595,-0.24598 0.13081,-0.0644 0.18489,-0.22245 0.12092,-0.35347 -0.0644,-0.13081 -0.22245,-0.18488 -0.35346,-0.12092 -0.2069896,0.10129 -0.4283596,0.16705 -0.6542297,0.19689 -0.45174,0.0597 -0.9212899,-0.0259 -1.3378999,-0.26717 C 6.5730066,10.373062 6.1668868,9.3920326 6.4161065,8.4589316 l 0.0661,-0.24908 0.3147099,0.544151 c 0.0727,0.125489 0.2329001,0.1690489 0.3591502,0.0977 0.1267299,-0.0728 0.1704599,-0.2345001 0.0977,-0.36122 L 6.6212468,7.3908123 C 6.5774468,7.3140123 6.4981166,7.2641722 6.3988117,7.257707 6.3426265,7.2581793 6.2985265,7.270512 6.2595666,7.293112 Z m -4.9371698,4.349564 c -0.43515997,0 -0.79322987,0.35755 -0.79322987,0.79271 v 1.05885 c 0,0.20332 0.0806,0.38771 0.2082599,0.52865 -0.1276199,0.1414 -0.2082599,0.32636 -0.2082599,0.52969 v 1.05885 c 0,0.43516 0.3580699,0.79271 0.79322987,0.79271 h 4.2343698 c 0.4351599,0 0.79272,-0.35755 0.79272,-0.79271 v -1.05885 c 0,-0.20333 -0.0801,-0.38829 -0.20774,-0.52969 0.1276101,-0.14094 0.20774,-0.32533 0.20774,-0.52865 v -1.05885 c 0,-0.43516 -0.3575601,-0.79271 -0.79272,-0.79271 z m 10.0546892,0 c -0.43516,0 -0.79324,0.35755 -0.79324,0.79271 v 1.05885 c 0,0.20332 0.0806,0.38771 0.20826,0.52865 -0.12762,0.1414 -0.20826,0.32636 -0.20826,0.52969 v 1.05885 c 0,0.43516 0.35807,0.79271 0.79324,0.79271 h 4.23436 c 0.43516,0 0.79272,-0.35755 0.79272,-0.79271 v -1.05885 c 0,-0.20333 -0.0801,-0.38829 -0.20774,-0.52969 0.12762,-0.14094 0.20774,-0.32533 0.20774,-0.52865 v -1.05885 c 0,-0.43516 -0.35756,-0.79271 -0.79272,-0.79271 z m -10.0546892,0.5271 h 1.32395 v 1.58801 h -1.32395 c -0.15115,0 -0.26355,-0.11239 -0.26355,-0.26355 v -1.05885 c 0,-0.15115 0.1124,-0.26561 0.26355,-0.26561 z m 1.85364,0 h 2.3807298 c 0.1511501,0 0.2635501,0.11446 0.2635501,0.26561 v 1.05885 c 0,0.15116 -0.1124,0.26355 -0.2635501,0.26355 H 3.1760368 Z m 8.2010492,0 h 1.32188 v 1.58801 h -1.32188 c -0.15116,0 -0.26355,-0.11239 -0.26355,-0.26355 v -1.05885 c 0,-0.15115 0.11239,-0.26561 0.26355,-0.26561 z m 1.85156,0 h 2.3828 c 0.15116,0 0.26355,0.11446 0.26355,0.26561 v 1.05885 c 0,0.15116 -0.11239,0.26355 -0.26355,0.26355 h -2.3828 z m -9.2598992,0.52916 c -0.1463299,5.82e-4 -0.26441,0.11981 -0.2635498,0.26614 5.556e-4,0.14532 0.1182298,0.26298 0.2635498,0.26355 h 1.0588501 c 0.14532,-5.56e-4 0.26299,-0.11823 0.2635498,-0.26355 8.467e-4,-0.14633 -0.11722,-0.26557 -0.2635498,-0.26614 z m 10.0546892,0 c -0.14714,-5.82e-4 -0.26648,0.119 -0.26562,0.26614 5.82e-4,0.14612 0.11949,0.26412 0.26562,0.26355 h 1.05885 c 0.14532,-5.56e-4 0.26298,-0.11823 0.26355,-0.26355 8.46e-4,-0.14633 -0.11723,-0.26557 -0.26355,-0.26614 z m -12.1713491,10e-4 c -0.14613,0 -0.26459,0.11846 -0.26459,0.26459 0,0.14612 0.11846,0.26458 0.26459,0.26458 0.14612,0 0.26458,-0.11846 0.26458,-0.26458 0,-0.14613 -0.11846,-0.26459 -0.26458,-0.26459 z m 10.0541591,0 c -0.14612,-5e-6 -0.26458,0.118455 -0.26458,0.264585 0,0.14612 0.11846,0.26458 0.26458,0.26458 0.14613,0 0.26459,-0.11846 0.26459,-0.26458 0,-0.14613 -0.11846,-0.26459 -0.26459,-0.26459 z m -9.2598991,1.58699 v 1.58805 h -1.32395 c -0.15115,0 -0.26355,-0.1124 -0.26355,-0.26355 v -1.05885 c 0,-0.15116 0.1124,-0.26562 0.26355,-0.265635 z m 0.52969,0 h 2.3807297 c 0.1511602,0 0.2635501,0.11446 0.2635501,0.26561 v 1.05885 c 0,0.15116 -0.1123899,0.26355 -0.2635501,0.26355 H 3.1760368 Z m 9.5229291,0 v 1.58805 h -1.32188 c -0.15116,0 -0.26355,-0.1124 -0.26355,-0.26355 v -1.05885 c 0,-0.15116 0.11239,-0.26562 0.26355,-0.265635 z m 0.52968,0 h 2.3828 c 0.15116,0 0.26355,0.11446 0.26355,0.26561 v 1.05885 c 0,0.15116 -0.11239,0.26355 -0.26355,0.26355 h -2.3828 z m -9.2598992,0.52916 c -0.1463299,5.82e-4 -0.26441,0.11981 -0.2635498,0.26614 5.82e-4,0.14531 0.1182298,0.26298 0.2635498,0.26355 h 1.0588501 c 0.14532,-5.56e-4 0.26299,-0.11824 0.2635498,-0.26355 8.467e-4,-0.14633 -0.11722,-0.26557 -0.2635498,-0.26614 z m 10.0546892,0 c -0.14714,-5.82e-4 -0.26648,0.119 -0.26562,0.26614 5.82e-4,0.14612 0.11949,0.26412 0.26562,0.26355 h 1.05885 c 0.14532,-5.56e-4 0.26298,-0.11824 0.26355,-0.26355 8.46e-4,-0.14633 -0.11723,-0.26557 -0.26355,-0.26614 z m -12.1713491,5.29e-4 c -0.14613,0 -0.26459,0.11846 -0.26459,0.26458 0,0.14613 0.11846,0.26459 0.26459,0.26459 0.14612,0 0.26458,-0.11846 0.26458,-0.26459 0,-0.14612 -0.11846,-0.26458 -0.26458,-0.26458 z m 9.7895791,0.264571 c 0,0.14613 0.11846,0.26459 0.26458,0.26459 0.14613,0 0.26459,-0.11846 0.26459,-0.26459 0,-0.14612 -0.11846,-0.26458 -0.26459,-0.264576 -0.14612,-4e-6 -0.26458,0.118456 -0.26458,0.264576 z m -4.7588795,0.336939 c -0.0281,0.14342 0.0653,0.28248 0.20877,0.31058 0.4452501,0.0868 0.9049102,0.13074 1.3751101,0.13074 0.4702,0 0.92988,-0.0439 1.3751099,-0.13074 0.1434201,-0.0281 0.2368995,-0.16716 0.2087695,-0.31058 -0.0279,-0.14339 -0.1666495,-0.23707 -0.3100595,-0.20929 -0.4121,0.0804 -0.83772,0.12144 -1.27382,0.12144 -0.4361,0 -0.8612,-0.0411 -1.2733099,-0.12144 -0.0141,-0.003 -0.0285,-0.005 -0.054005,-0.0058 -0.1428846,0.0077 -0.233935,0.09556 -0.2565651,0.21513 z" id="Icon_26" style="display:inline;fill:#66a0fe;stroke:none;stroke-width:0.529167;stroke-linecap:round;stroke-linejoin:round;stroke-miterlimit:4;stroke-dasharray:none;paint-order:stroke fill markers;fill-opacity:1"/></g></svg>